<svg xmlns="http://www.w3.org/2000/svg" xmlns:xlink="http://www.w3.org/1999/xlink" width="500" zoomAndPan="magnify" viewBox="0 0 375 374.999991" height="500" preserveAspectRatio="xMidYMid meet" version="1.0"><defs><clipPath id="14a50dde8a"><path d="M 0 43.976562 L 375 43.976562 L 375 331.226562 L 0 331.226562 Z M 0 43.976562 " clip-rule="nonzero"/></clipPath><clipPath id="26e71ac602"><path d="M 158 168 L 375 168 L 375 331.226562 L 158 331.226562 Z M 158 168 " clip-rule="nonzero"/></clipPath><clipPath id="0122ab1fee"><path d="M 0 43.976562 L 349 43.976562 L 349 331.226562 L 0 331.226562 Z M 0 43.976562 " clip-rule="nonzero"/></clipPath><clipPath id="539fbff72a"><path d="M 28 64 L 372 64 L 372 331.226562 L 28 331.226562 Z M 28 64 " clip-rule="nonzero"/></clipPath></defs><rect x="-37.5" width="450" fill="#ffffff" y="-37.499999" height="449.999989" fill-opacity="1"/><rect x="-37.5" width="450" fill="#ffffff" y="-37.499999" height="449.999989" fill-opacity="1"/><rect x="-37.5" width="450" fill="#ffffff" y="-37.499999" height="449.999989" fill-opacity="1"/><g clip-path="url(#14a50dde8a)"><path fill="#ffffff" d="M 374.980469 172.804688 L 374.980469 327.167969 C 374.980469 329.332031 373.222656 331.089844 371.0625 331.089844 L 289.570312 331.089844 C 289.496094 331.125 289.414062 331.152344 289.324219 331.152344 L 225.828125 331.152344 C 225.652344 331.199219 225.472656 331.230469 225.28125 331.230469 L 178.011719 331.230469 C 177.78125 331.230469 177.5625 331.175781 177.355469 331.089844 L 162.21875 331.089844 C 160.058594 331.089844 158.300781 329.332031 158.300781 327.167969 L 158.300781 312.3125 L 137.890625 258.605469 C 137.558594 257.726562 137.679688 256.742188 138.210938 255.96875 C 138.742188 255.199219 139.621094 254.738281 140.554688 254.738281 L 158.300781 254.738281 L 158.300781 199.921875 C 136.984375 193.058594 121.515625 173.03125 121.515625 149.445312 C 121.515625 120.214844 145.28125 96.429688 174.492188 96.429688 C 203.703125 96.429688 227.46875 120.214844 227.46875 149.445312 C 227.46875 156.308594 226.144531 162.863281 223.761719 168.886719 L 329.351562 168.886719 L 326.046875 159.34375 C 325.976562 159.140625 326.03125 158.914062 326.183594 158.761719 C 326.335938 158.609375 326.558594 158.558594 326.765625 158.628906 L 350.050781 166.699219 C 350.277344 166.777344 350.429688 166.992188 350.429688 167.230469 C 350.425781 167.472656 350.273438 167.683594 350.046875 167.761719 L 346.695312 168.886719 L 371.0625 168.886719 C 373.222656 168.886719 374.980469 170.644531 374.980469 172.804688 Z M 295.601562 150.007812 C 324.8125 150.007812 348.578125 126.226562 348.578125 96.992188 C 348.578125 67.761719 324.8125 43.976562 295.601562 43.976562 C 266.390625 43.976562 242.625 67.761719 242.625 96.992188 C 242.625 126.226562 266.390625 150.007812 295.601562 150.007812 Z M 105.976562 202.847656 C 105.976562 173.613281 82.210938 149.832031 53 149.832031 C 23.789062 149.832031 0.0234375 173.613281 0.0234375 202.847656 C 0.0234375 232.078125 23.789062 255.859375 53 255.859375 C 82.210938 255.859375 105.976562 232.078125 105.976562 202.847656 Z M 133.261719 285.570312 C 133.203125 285.417969 133.082031 285.300781 132.929688 285.246094 C 132.78125 285.1875 132.613281 285.203125 132.46875 285.277344 C 132.335938 285.351562 118.898438 292.515625 110.125 288.421875 C 100.007812 283.699219 96.75 274.292969 96.179688 272.382812 L 104.34375 266.015625 C 104.523438 265.871094 104.601562 265.632812 104.535156 265.40625 C 104.46875 265.1875 104.269531 265.027344 104.039062 265.011719 L 78.695312 263.066406 C 78.398438 263.019531 78.121094 263.269531 78.09375 263.574219 L 76.019531 287.128906 C 76 287.351562 76.113281 287.566406 76.3125 287.671875 C 76.515625 287.777344 76.757812 287.753906 76.929688 287.613281 L 83.078125 282.621094 C 84.5 286.089844 91.292969 300.832031 105.472656 305.199219 C 108.523438 306.140625 111.644531 306.519531 114.695312 306.519531 C 127.101562 306.519531 138.269531 300.257812 138.40625 300.179688 C 138.648438 300.039062 138.753906 299.746094 138.652344 299.488281 Z M 133.261719 285.570312 " fill-opacity="1" fill-rule="nonzero"/></g><g clip-path="url(#26e71ac602)"><path fill="#d8d0c5" d="M 352.628906 208.800781 C 353.410156 209.113281 354.191406 209.464844 354.960938 209.855469 C 352.429688 215.148438 347.746094 216.960938 345.898438 217.484375 C 342.332031 218.492188 338.816406 217.9375 337.890625 216.222656 C 336.957031 214.496094 337.351562 212.332031 338.914062 210.574219 C 340.367188 208.941406 343.003906 207.539062 346.539062 207.539062 C 348.34375 207.539062 350.390625 207.90625 352.628906 208.800781 Z M 241.636719 325.796875 C 241.554688 325.671875 241.480469 325.53125 241.410156 325.382812 C 240.992188 325.875 240.46875 326.210938 239.882812 326.285156 C 239.796875 326.292969 239.710938 326.300781 239.625 326.300781 C 238.878906 326.300781 238.1875 325.882812 237.703125 325.132812 C 236.902344 323.890625 236.644531 321.792969 236.894531 318.519531 C 236.902344 318.398438 236.917969 318.28125 236.929688 318.164062 C 236.6875 318.542969 236.4375 319.003906 236.199219 319.585938 C 236.011719 320.042969 235.878906 320.507812 235.753906 320.960938 C 235.496094 321.859375 235.257812 322.703125 234.640625 323.433594 C 234.210938 323.941406 233.242188 324.367188 232.296875 324.171875 C 231.523438 324.007812 230.960938 323.457031 230.710938 322.621094 C 230.183594 320.839844 230.195312 317.953125 231.824219 315.199219 C 231.871094 315.121094 231.929688 315.050781 231.976562 314.972656 L 205.59375 314.972656 L 201.644531 326.414062 C 201.59375 326.550781 201.617188 326.699219 201.703125 326.820312 C 201.71875 326.84375 201.742188 326.851562 201.765625 326.871094 C 201.8125 326.859375 201.859375 326.84375 201.910156 326.84375 L 242.90625 326.84375 C 242.417969 326.671875 241.976562 326.324219 241.636719 325.796875 Z M 270.40625 320.855469 C 270.230469 320.957031 270.039062 321.066406 269.867188 321.167969 C 269.558594 321.347656 269.261719 321.523438 268.964844 321.691406 C 264.847656 324.160156 256.921875 326.289062 249.292969 326.84375 L 270.347656 326.84375 L 270.496094 323.511719 C 270.269531 322.851562 270.199219 321.929688 270.40625 320.855469 Z M 181.230469 314.976562 L 161.277344 314.976562 C 160.585938 314.976562 159.933594 314.714844 159.425781 314.277344 C 159.070312 313.972656 158.785156 313.585938 158.613281 313.136719 L 158.300781 312.3125 L 158.300781 327.167969 C 158.300781 329.332031 160.058594 331.089844 162.21875 331.089844 L 177.355469 331.089844 C 177.066406 330.964844 176.808594 330.777344 176.621094 330.515625 C 176.5 330.347656 176.425781 330.15625 176.375 329.964844 C 176.289062 329.636719 176.285156 329.292969 176.398438 328.964844 Z M 374.980469 172.804688 L 374.980469 327.167969 C 374.980469 329.332031 373.222656 331.089844 371.0625 331.089844 L 329.855469 331.089844 C 330.015625 331.089844 330.171875 331.019531 330.277344 330.894531 C 330.382812 330.773438 330.433594 330.609375 330.410156 330.449219 L 330.34375 329.964844 L 329.929688 326.9375 C 340.597656 326.0625 347.058594 323.539062 348.589844 316.503906 C 350.0625 309.75 348.65625 300.71875 348.597656 300.339844 C 348.597656 300.339844 348.597656 300.339844 348.597656 300.335938 C 346.871094 285.890625 342.777344 267.039062 337.875 259.765625 C 332.0625 251.144531 318.957031 246.527344 317.289062 245.96875 L 311.414062 238.867188 L 311.414062 233.058594 C 312.5625 233.589844 313.835938 233.898438 315.183594 233.898438 C 320.132812 233.898438 324.164062 229.867188 324.164062 224.914062 C 324.164062 220.839844 321.441406 217.398438 317.722656 216.300781 C 318.828125 211.214844 319.675781 203.410156 316.25 198.183594 C 313.003906 193.222656 306.539062 193.171875 302.605469 193.679688 C 300.492188 193.351562 298.359375 193.320312 296.441406 193.441406 C 289.066406 193.898438 286.355469 196.464844 284.597656 200.179688 C 284.277344 200.441406 283.96875 200.710938 283.6875 200.996094 C 283.683594 201 283.675781 201.003906 283.671875 201.007812 C 283.664062 201.015625 283.660156 201.023438 283.652344 201.027344 C 283.644531 201.035156 283.640625 201.039062 283.632812 201.046875 C 283.628906 201.050781 283.625 201.054688 283.621094 201.058594 C 280.644531 203.691406 281.488281 209.253906 281.527344 209.492188 C 281.796875 211.617188 282.222656 213.683594 282.597656 215.503906 C 282.699219 216.015625 282.800781 216.507812 282.894531 216.980469 C 280.0625 218.492188 278.125 221.480469 278.125 224.910156 C 278.125 226.511719 278.550781 228.015625 279.289062 229.316406 C 278.628906 229.613281 275.792969 231.0625 275.277344 234.222656 C 274.777344 237.257812 276.566406 239.355469 277.113281 239.917969 C 277.285156 241.445312 278.863281 242.652344 280.796875 242.652344 C 282.847656 242.652344 284.515625 241.304688 284.515625 239.648438 C 284.515625 237.992188 282.847656 236.644531 280.796875 236.644531 C 279.265625 236.644531 277.945312 237.398438 277.378906 238.472656 C 276.800781 237.65625 276.085938 236.226562 276.382812 234.402344 C 276.855469 231.535156 279.816406 230.3125 279.84375 230.300781 C 279.871094 230.289062 279.886719 230.269531 279.90625 230.257812 C 280.832031 231.503906 282.066406 232.5 283.5 233.132812 C 283.894531 234.273438 284.488281 235.390625 285.375 236.449219 C 286.722656 238.050781 288.414062 239.265625 290.320312 240.03125 L 290.320312 241.46875 L 285.6875 248.550781 C 284.046875 248.804688 275.441406 250.507812 268.300781 259.003906 C 260.625 268.140625 252.796875 298.765625 252.417969 300.261719 L 251.304688 303.921875 L 233.246094 256.402344 C 232.867188 255.40625 231.898438 254.734375 230.832031 254.734375 L 158.300781 254.734375 L 158.300781 199.917969 C 158.675781 200.039062 159.050781 200.152344 159.425781 200.265625 C 164.203125 201.683594 169.257812 202.460938 174.492188 202.460938 C 196.417969 202.460938 215.277344 189.058594 223.320312 170.007812 C 223.476562 169.640625 223.613281 169.261719 223.761719 168.886719 L 329.351562 168.886719 L 329.738281 170.007812 L 334.109375 182.644531 C 334.1875 182.871094 334.402344 183.023438 334.640625 183.023438 C 334.878906 183.023438 335.09375 182.875 335.171875 182.648438 L 338.984375 171.835938 C 341.980469 173.847656 355.679688 183.917969 356.601562 200.113281 C 356.804688 203.683594 356.300781 206.539062 355.40625 208.824219 C 354.625 208.429688 353.835938 208.074219 353.046875 207.753906 C 345.894531 204.902344 340.511719 207.085938 338.074219 209.824219 C 336.1875 211.945312 335.738281 214.597656 336.902344 216.753906 C 338.085938 218.953125 342.089844 219.730469 346.207031 218.5625 C 349.933594 217.507812 353.730469 214.875 355.914062 210.359375 C 364.652344 215.171875 372.027344 224.652344 370.386719 233.230469 C 369.847656 236.054688 368.308594 238.269531 365.820312 239.816406 C 355.886719 245.96875 333.933594 239.929688 333.714844 239.871094 C 333.414062 239.785156 333.105469 239.960938 333.019531 240.257812 C 332.9375 240.558594 333.113281 240.867188 333.410156 240.953125 C 334.011719 241.121094 343.492188 243.730469 352.878906 243.730469 C 357.863281 243.730469 362.820312 242.996094 366.40625 240.769531 C 369.175781 239.054688 370.886719 236.589844 371.488281 233.441406 C 373.230469 224.34375 365.507812 214.34375 356.367188 209.332031 C 357.394531 206.789062 357.929688 203.710938 357.722656 200.050781 C 356.804688 183.925781 343.671875 173.71875 339.960938 171.144531 L 343.34375 170.007812 L 346.691406 168.886719 L 371.0625 168.886719 C 373.222656 168.886719 374.980469 170.644531 374.980469 172.804688 Z M 236.046875 205.226562 C 236.277344 205.152344 236.429688 204.9375 236.429688 204.695312 C 236.433594 204.457031 236.28125 204.242188 236.054688 204.164062 L 212.765625 196.09375 C 212.5625 196.023438 212.339844 196.074219 212.1875 196.230469 C 212.03125 196.382812 211.980469 196.605469 212.050781 196.8125 L 220.113281 220.113281 C 220.152344 220.230469 220.226562 220.324219 220.320312 220.386719 C 220.414062 220.453125 220.527344 220.492188 220.644531 220.492188 C 220.707031 220.492188 220.769531 220.484375 220.828125 220.460938 C 220.867188 220.449219 220.898438 220.421875 220.929688 220.402344 C 220.949219 220.390625 220.96875 220.382812 220.984375 220.371094 C 221.066406 220.308594 221.125 220.226562 221.160156 220.132812 C 221.164062 220.128906 221.171875 220.125 221.175781 220.117188 L 225.132812 208.890625 Z M 247.039062 237.984375 C 242.847656 223.390625 233.273438 216.109375 233.175781 216.039062 C 232.925781 215.851562 232.574219 215.90625 232.390625 216.152344 C 232.203125 216.402344 232.253906 216.753906 232.503906 216.9375 C 232.597656 217.007812 241.875 224.082031 245.960938 238.296875 C 250.046875 252.515625 244.753906 266.597656 244.699219 266.738281 C 244.589844 267.027344 244.734375 267.351562 245.023438 267.464844 C 245.089844 267.488281 245.15625 267.5 245.226562 267.5 C 245.449219 267.5 245.664062 267.363281 245.75 267.140625 C 245.804688 266.996094 251.230469 252.578125 247.039062 237.984375 Z M 247.039062 237.984375 " fill-opacity="1" fill-rule="nonzero"/></g><g clip-path="url(#0122ab1fee)"><path fill="#f58e6d" d="M 330.34375 329.964844 L 330.410156 330.449219 C 330.429688 330.609375 330.382812 330.773438 330.277344 330.894531 C 330.171875 331.015625 330.015625 331.085938 329.851562 331.085938 L 289.570312 331.085938 C 289.757812 330.996094 289.886719 330.808594 289.886719 330.589844 L 289.886719 327.40625 C 289.886719 327.09375 289.636719 326.84375 289.324219 326.84375 L 271.472656 326.84375 L 271.5625 324.851562 C 271.566406 324.855469 271.570312 324.859375 271.578125 324.863281 C 271.792969 324.988281 272.023438 325.085938 272.28125 325.128906 C 272.410156 325.152344 272.542969 325.160156 272.675781 325.160156 C 273.246094 325.160156 273.824219 324.949219 274.316406 324.589844 C 274.316406 324.589844 274.316406 324.59375 274.320312 324.59375 C 274.714844 325.101562 275.394531 325.421875 276.175781 325.476562 C 276.253906 325.480469 276.332031 325.484375 276.410156 325.484375 C 277.113281 325.484375 277.773438 325.257812 278.269531 324.875 C 278.285156 324.898438 278.292969 324.925781 278.308594 324.949219 C 278.679688 325.417969 279.34375 325.707031 280.085938 325.726562 C 280.113281 325.726562 280.140625 325.726562 280.167969 325.726562 C 281.058594 325.726562 281.910156 325.335938 282.515625 324.648438 C 282.71875 324.421875 282.960938 324.121094 283.238281 323.78125 C 283.691406 323.230469 284.230469 322.570312 284.824219 321.917969 C 288.945312 326.667969 301.742188 327.5 312.058594 327.5 C 315.332031 327.5 318.355469 327.417969 320.765625 327.351562 L 322.441406 327.308594 C 324.703125 327.253906 326.8125 327.160156 328.804688 327.019531 C 329.179688 326.992188 329.558594 326.96875 329.925781 326.9375 Z M 348.597656 300.335938 C 348.546875 300.03125 348.253906 299.820312 347.953125 299.871094 C 347.675781 299.914062 347.492188 300.15625 347.492188 300.425781 L 326.296875 300.425781 L 326.273438 300.316406 C 326.273438 300.3125 326.269531 300.308594 326.269531 300.304688 C 326.269531 300.300781 326.269531 300.296875 326.269531 300.292969 L 326.164062 299.863281 L 320.644531 276.980469 C 320.574219 276.679688 320.273438 276.5 319.96875 276.566406 C 319.667969 276.640625 319.480469 276.941406 319.554688 277.246094 L 325.171875 300.535156 L 325.171875 300.539062 L 326.972656 309.808594 L 326.449219 309.855469 L 293.769531 312.789062 C 290.007812 310.203125 284.996094 308.722656 279.988281 308.722656 C 279.980469 308.722656 279.976562 308.722656 279.972656 308.722656 C 277.316406 308.726562 274.636719 309.589844 272.230469 310.921875 C 272.207031 310.933594 272.1875 310.945312 272.164062 310.957031 L 272.625 300.4375 L 273.636719 277.136719 C 273.648438 276.828125 273.410156 276.5625 273.097656 276.550781 C 272.792969 276.550781 272.527344 276.777344 272.511719 277.085938 L 271.523438 299.863281 L 271.472656 300.984375 L 252.953125 300.984375 C 252.78125 300.984375 252.617188 300.90625 252.511719 300.769531 C 252.40625 300.632812 252.367188 300.453125 252.410156 300.285156 C 252.410156 300.28125 252.414062 300.269531 252.414062 300.261719 C 252.792969 298.765625 260.621094 268.140625 268.300781 259.003906 C 275.441406 250.507812 284.042969 248.804688 285.6875 248.550781 L 290.320312 241.46875 L 290.410156 241.328125 C 290.507812 241.179688 290.664062 241.089844 290.839844 241.074219 C 291.011719 241.058594 291.183594 241.132812 291.300781 241.261719 L 291.441406 241.421875 L 296.265625 246.867188 L 310.289062 238.742188 L 310.570312 238.582031 C 310.808594 238.441406 311.109375 238.496094 311.285156 238.707031 L 311.414062 238.863281 L 317.289062 245.964844 C 318.957031 246.523438 332.0625 251.136719 337.875 259.761719 C 342.777344 267.039062 346.867188 285.890625 348.597656 300.335938 Z M 317.425781 246.140625 C 317.253906 245.878906 316.902344 245.8125 316.648438 245.980469 L 316.128906 246.328125 L 300.742188 256.546875 L 296.867188 247.820312 L 296.664062 247.359375 C 296.585938 247.183594 296.425781 247.0625 296.234375 247.03125 C 296.050781 247.003906 295.855469 247.070312 295.730469 247.214844 L 295.398438 247.585938 L 288.839844 255.011719 L 286.640625 249.144531 L 286.542969 248.875 C 286.433594 248.585938 286.109375 248.4375 285.820312 248.546875 C 285.527344 248.65625 285.382812 248.980469 285.492188 249.273438 L 285.652344 249.703125 L 288.117188 256.28125 C 288.1875 256.464844 288.347656 256.601562 288.542969 256.636719 C 288.734375 256.675781 288.933594 256.601562 289.0625 256.453125 L 295.992188 248.613281 L 299.984375 257.613281 C 300.050781 257.761719 300.183594 257.875 300.339844 257.921875 C 300.394531 257.9375 300.445312 257.945312 300.5 257.945312 C 300.609375 257.945312 300.714844 257.914062 300.808594 257.851562 L 317.039062 247.070312 L 317.269531 246.917969 C 317.527344 246.746094 317.597656 246.398438 317.425781 246.140625 Z M 277.378906 238.472656 C 277.1875 238.835938 277.082031 239.230469 277.082031 239.648438 C 277.082031 239.742188 277.101562 239.828125 277.113281 239.917969 C 277.285156 241.449219 278.859375 242.652344 280.796875 242.652344 C 282.847656 242.652344 284.511719 241.304688 284.511719 239.648438 C 284.511719 237.992188 282.84375 236.644531 280.796875 236.644531 C 279.261719 236.644531 277.945312 237.402344 277.378906 238.472656 Z M 242.625 96.992188 C 242.625 67.761719 266.390625 43.976562 295.601562 43.976562 C 324.8125 43.976562 348.578125 67.761719 348.578125 96.992188 C 348.578125 126.226562 324.8125 150.007812 295.601562 150.007812 C 266.390625 150.007812 242.625 126.226562 242.625 96.992188 Z M 271.464844 128.722656 C 271.464844 129.035156 271.714844 129.285156 272.023438 129.285156 L 319.179688 129.285156 C 319.492188 129.285156 319.742188 129.035156 319.742188 128.722656 L 319.742188 108.296875 C 319.742188 100.085938 313.070312 93.410156 304.863281 93.410156 L 302.007812 93.410156 L 302.007812 93.285156 C 307.460938 90.910156 310.960938 85.585938 310.960938 79.617188 C 310.960938 71.390625 304.273438 64.699219 296.054688 64.699219 C 287.835938 64.699219 281.152344 71.390625 281.152344 79.617188 C 281.152344 85.226562 284.222656 90.261719 289.195312 92.84375 L 289.195312 93.410156 L 286.339844 93.410156 C 278.136719 93.410156 271.464844 100.085938 271.464844 108.296875 Z M 223.316406 170.011719 C 215.277344 189.058594 196.417969 202.460938 174.492188 202.460938 C 169.257812 202.460938 164.203125 201.6875 159.425781 200.265625 C 159.050781 200.152344 158.675781 200.039062 158.300781 199.921875 C 136.984375 193.058594 121.515625 173.03125 121.515625 149.445312 C 121.515625 120.214844 145.28125 96.429688 174.492188 96.429688 C 203.703125 96.429688 227.46875 120.214844 227.46875 149.445312 C 227.46875 156.308594 226.144531 162.863281 223.761719 168.886719 C 223.613281 169.261719 223.472656 169.640625 223.316406 170.011719 Z M 198.628906 160.75 C 198.628906 152.539062 191.957031 145.863281 183.753906 145.863281 L 180.898438 145.863281 L 180.898438 145.738281 C 186.347656 143.363281 189.851562 138.039062 189.851562 132.070312 C 189.851562 123.84375 183.164062 117.152344 174.945312 117.152344 C 166.726562 117.152344 160.039062 123.84375 160.039062 132.070312 C 160.039062 137.679688 163.113281 142.714844 168.082031 145.296875 L 168.082031 145.863281 L 165.226562 145.863281 C 157.023438 145.863281 150.351562 152.539062 150.351562 160.75 L 150.351562 181.175781 C 150.351562 181.488281 150.601562 181.738281 150.914062 181.738281 L 198.066406 181.738281 C 198.378906 181.738281 198.628906 181.488281 198.628906 181.175781 Z M 53 255.859375 C 23.789062 255.859375 0.0234375 232.078125 0.0234375 202.847656 C 0.0234375 173.613281 23.789062 149.832031 53 149.832031 C 82.210938 149.832031 105.976562 173.613281 105.976562 202.847656 C 105.976562 232.078125 82.210938 255.859375 53 255.859375 Z M 77.140625 214.148438 C 77.140625 205.941406 70.464844 199.261719 62.261719 199.261719 L 59.40625 199.261719 L 59.40625 199.136719 C 64.859375 196.761719 68.359375 191.4375 68.359375 185.46875 C 68.359375 177.242188 61.671875 170.550781 53.453125 170.550781 C 45.234375 170.550781 38.550781 177.242188 38.550781 185.46875 C 38.550781 191.078125 41.621094 196.113281 46.59375 198.695312 L 46.59375 199.261719 L 43.738281 199.261719 C 35.535156 199.261719 28.859375 205.9375 28.859375 214.148438 L 28.859375 234.574219 C 28.859375 234.886719 29.113281 235.136719 29.421875 235.136719 L 76.578125 235.136719 C 76.886719 235.136719 77.140625 234.886719 77.140625 234.574219 Z M 133.261719 285.570312 C 133.203125 285.417969 133.082031 285.300781 132.929688 285.246094 C 132.78125 285.1875 132.613281 285.203125 132.46875 285.277344 C 132.335938 285.351562 118.898438 292.515625 110.125 288.421875 C 100.007812 283.699219 96.75 274.292969 96.179688 272.382812 L 104.34375 266.015625 C 104.523438 265.871094 104.601562 265.632812 104.535156 265.40625 C 104.46875 265.1875 104.269531 265.027344 104.039062 265.011719 L 78.695312 263.066406 C 78.398438 263.019531 78.121094 263.269531 78.09375 263.574219 L 76.019531 287.128906 C 76 287.351562 76.113281 287.566406 76.3125 287.671875 C 76.515625 287.777344 76.757812 287.753906 76.929688 287.613281 L 83.078125 282.621094 C 84.5 286.089844 91.292969 300.832031 105.472656 305.199219 C 108.523438 306.140625 111.644531 306.519531 114.695312 306.519531 C 127.101562 306.519531 138.269531 300.257812 138.40625 300.179688 C 138.648438 300.039062 138.753906 299.746094 138.652344 299.488281 Z M 224.164062 208.625 C 224.121094 208.488281 224.132812 208.351562 224.183594 208.230469 C 224.207031 208.179688 224.238281 208.132812 224.273438 208.089844 C 224.289062 208.070312 224.296875 208.054688 224.3125 208.039062 C 224.371094 207.984375 224.4375 207.9375 224.519531 207.914062 L 234.128906 204.6875 L 213.492188 197.535156 L 221.175781 219.746094 C 221.222656 219.878906 221.210938 220.015625 221.160156 220.136719 C 221.164062 220.128906 221.171875 220.125 221.175781 220.117188 L 225.136719 208.890625 L 236.050781 205.226562 L 224.875 208.976562 C 224.582031 209.082031 224.261719 208.917969 224.164062 208.625 Z M 224.164062 208.625 " fill-opacity="1" fill-rule="nonzero"/></g><g clip-path="url(#539fbff72a)"><path fill="#231f20" d="M 316.25 198.179688 C 313.003906 193.222656 306.539062 193.167969 302.605469 193.679688 C 300.492188 193.347656 298.359375 193.320312 296.4375 193.441406 C 289.066406 193.898438 286.355469 196.464844 284.597656 200.179688 C 284.273438 200.441406 283.96875 200.707031 283.6875 200.996094 C 283.683594 201 283.675781 201.003906 283.671875 201.007812 C 283.664062 201.015625 283.660156 201.019531 283.652344 201.027344 C 283.644531 201.035156 283.636719 201.039062 283.632812 201.046875 C 283.628906 201.050781 283.625 201.054688 283.621094 201.058594 C 280.644531 203.691406 281.488281 209.25 281.527344 209.488281 C 281.527344 209.492188 281.527344 209.492188 281.527344 209.492188 C 281.796875 211.617188 282.222656 213.683594 282.59375 215.503906 C 282.699219 216.015625 282.800781 216.507812 282.894531 216.980469 C 280.058594 218.492188 278.125 221.480469 278.125 224.910156 C 278.125 226.511719 278.550781 228.015625 279.289062 229.316406 C 278.628906 229.613281 275.792969 231.058594 275.273438 234.222656 C 274.777344 237.257812 276.566406 239.355469 277.113281 239.917969 C 277.105469 239.828125 277.082031 239.738281 277.082031 239.648438 C 277.082031 239.230469 277.1875 238.835938 277.378906 238.472656 C 276.800781 237.65625 276.085938 236.226562 276.382812 234.402344 C 276.851562 231.535156 279.8125 230.3125 279.84375 230.300781 C 279.867188 230.289062 279.886719 230.269531 279.90625 230.257812 C 280.832031 231.503906 282.066406 232.5 283.5 233.132812 C 283.894531 234.273438 284.488281 235.390625 285.375 236.449219 C 286.722656 238.050781 288.414062 239.265625 290.320312 240.03125 L 290.320312 241.46875 L 290.410156 241.328125 C 290.507812 241.183594 290.664062 241.089844 290.839844 241.074219 C 291.011719 241.058594 291.1875 241.132812 291.300781 241.261719 L 291.441406 241.421875 L 291.441406 240.421875 C 292.308594 240.679688 293.210938 240.855469 294.136719 240.929688 C 294.476562 240.957031 294.835938 240.972656 295.214844 240.972656 C 298.046875 240.972656 301.957031 240.097656 306.097656 236.511719 C 306.332031 236.308594 306.355469 235.957031 306.152344 235.722656 C 305.949219 235.484375 305.597656 235.460938 305.363281 235.664062 C 300.960938 239.472656 296.882812 240.027344 294.226562 239.808594 C 291.074219 239.558594 288.234375 238.105469 286.238281 235.726562 C 284.445312 233.59375 283.953125 231.199219 283.941406 228.816406 C 283.929688 227.328125 284.109375 225.84375 284.28125 224.433594 C 284.402344 223.453125 284.511719 222.519531 284.550781 221.644531 C 284.566406 221.269531 284.574219 220.902344 284.558594 220.554688 C 284.484375 219.117188 284.121094 217.335938 283.699219 215.277344 C 283.335938 213.515625 282.929688 211.519531 282.664062 209.484375 C 283.128906 208.5625 286.617188 202.75 299.574219 205.003906 C 299.660156 206.980469 300.527344 214.46875 308.070312 219.453125 C 306.90625 220.964844 306.207031 222.855469 306.207031 224.910156 C 306.207031 228.058594 307.835938 230.828125 310.292969 232.433594 L 310.292969 238.742188 L 310.574219 238.582031 C 310.8125 238.441406 311.113281 238.496094 311.285156 238.707031 L 311.417969 238.863281 L 311.417969 233.050781 C 312.566406 233.585938 313.839844 233.894531 315.1875 233.894531 C 320.136719 233.894531 324.164062 229.863281 324.164062 224.910156 C 324.164062 220.835938 321.445312 217.394531 317.726562 216.292969 C 318.828125 211.214844 319.675781 203.410156 316.25 198.179688 Z M 283.433594 220.613281 C 283.484375 221.671875 283.332031 222.949219 283.164062 224.300781 C 282.890625 226.546875 282.582031 229.125 283.097656 231.660156 C 280.796875 230.289062 279.25 227.78125 279.25 224.914062 C 279.25 222.035156 280.804688 219.523438 283.113281 218.152344 C 283.277344 219.070312 283.398438 219.898438 283.433594 220.613281 Z M 286.648438 198.84375 C 288.316406 196.4375 290.957031 194.90625 296.507812 194.5625 C 301.667969 194.238281 308.492188 194.976562 311.636719 200.320312 C 314.246094 204.75 314.574219 213.691406 314.617188 215.957031 C 313.484375 216.027344 312.414062 216.304688 311.433594 216.761719 C 311.453125 214.203125 311.242188 207.207031 308.609375 202.417969 C 308.550781 202.304688 308.488281 202.203125 308.429688 202.09375 C 308.402344 202.050781 308.378906 202.007812 308.351562 201.964844 C 307.988281 201.34375 307.597656 200.789062 307.175781 200.339844 C 307.144531 200.304688 307.109375 200.277344 307.078125 200.242188 C 306.84375 199.988281 306.585938 199.742188 306.296875 199.511719 C 304.441406 197.953125 301.964844 197.09375 298.632812 196.792969 C 298.480469 196.78125 298.328125 196.765625 298.175781 196.753906 C 297.898438 196.734375 297.613281 196.71875 297.320312 196.703125 C 297.128906 196.695312 296.941406 196.675781 296.742188 196.671875 C 296.601562 196.667969 296.460938 196.679688 296.320312 196.679688 C 296.132812 196.675781 295.964844 196.664062 295.773438 196.664062 C 295.421875 196.664062 295.085938 196.691406 294.746094 196.707031 C 294.738281 196.707031 294.734375 196.707031 294.726562 196.707031 C 293.066406 196.789062 291.507812 197.050781 290.039062 197.496094 C 288.808594 197.84375 287.671875 198.292969 286.648438 198.84375 Z M 323.039062 224.914062 C 323.039062 229.246094 319.515625 232.773438 315.183594 232.773438 C 310.851562 232.773438 307.328125 229.246094 307.328125 224.914062 C 307.328125 222.921875 308.074219 221.109375 309.296875 219.722656 L 311.15625 218.175781 C 312.335938 217.464844 313.710938 217.050781 315.183594 217.050781 C 319.515625 217.050781 323.039062 220.578125 323.039062 224.914062 Z M 293.257812 234.875 C 293.601562 234.875 293.96875 234.835938 294.351562 234.746094 C 297.59375 234.003906 298.296875 231.152344 298.214844 229.746094 C 298.203125 229.554688 298.09375 229.382812 297.925781 229.289062 C 297.757812 229.195312 297.550781 229.195312 297.382812 229.289062 C 294.902344 230.652344 289.382812 230.519531 289.332031 230.519531 C 289.152344 230.515625 288.976562 230.597656 288.867188 230.742188 C 288.757812 230.886719 288.726562 231.078125 288.78125 231.25 C 289.21875 232.609375 290.671875 234.875 293.257812 234.875 Z M 297.023438 230.679688 C 296.839844 231.65625 296.210938 233.167969 294.101562 233.652344 C 291.914062 234.15625 290.707031 232.621094 290.179688 231.644531 C 291.695312 231.628906 294.832031 231.488281 297.023438 230.679688 Z M 287.578125 217.566406 L 287.6875 219.878906 C 287.703125 220.191406 287.460938 220.453125 287.152344 220.46875 C 287.144531 220.46875 287.132812 220.46875 287.125 220.46875 C 286.828125 220.46875 286.578125 220.234375 286.566406 219.933594 L 286.460938 217.617188 C 286.445312 217.308594 286.683594 217.046875 286.992188 217.03125 C 287.304688 216.988281 287.566406 217.257812 287.578125 217.566406 Z M 295.90625 219.359375 L 295.796875 217.042969 C 295.785156 216.734375 296.023438 216.472656 296.332031 216.457031 C 296.632812 216.414062 296.90625 216.679688 296.917969 216.992188 L 297.027344 219.304688 C 297.042969 219.617188 296.800781 219.878906 296.492188 219.894531 C 296.484375 219.894531 296.476562 219.894531 296.46875 219.894531 C 296.167969 219.894531 295.917969 219.660156 295.90625 219.359375 Z M 288.980469 224.09375 C 290.53125 220.265625 290.195312 218.179688 290.195312 218.160156 C 290.140625 217.855469 290.34375 217.5625 290.648438 217.507812 C 290.953125 217.457031 291.242188 217.65625 291.296875 217.957031 C 291.316406 218.054688 291.710938 220.34375 290.023438 224.515625 C 289.835938 224.980469 289.828125 225.347656 290.007812 225.597656 C 290.304688 226.015625 291.113281 226.25 292.132812 226.199219 C 292.421875 226.191406 292.703125 226.429688 292.71875 226.738281 C 292.730469 227.046875 292.492188 227.308594 292.179688 227.324219 C 292.082031 227.328125 291.984375 227.328125 291.886719 227.328125 C 290.589844 227.328125 289.582031 226.941406 289.089844 226.246094 C 288.808594 225.84375 288.558594 225.144531 288.980469 224.09375 Z M 348.597656 300.335938 C 348.546875 300.03125 348.253906 299.820312 347.953125 299.871094 C 347.675781 299.914062 347.492188 300.15625 347.492188 300.425781 C 347.492188 300.453125 347.484375 300.484375 347.488281 300.511719 C 347.503906 300.605469 348.921875 309.710938 347.496094 316.261719 C 345.777344 324.136719 337.359375 325.824219 322.417969 326.183594 L 320.738281 326.226562 C 311.617188 326.476562 290.523438 327.050781 285.597656 321.117188 C 286.410156 320.3125 287.292969 319.589844 288.191406 319.183594 C 288.476562 319.054688 288.601562 318.722656 288.472656 318.441406 C 288.34375 318.15625 288.007812 318.035156 287.730469 318.160156 C 287.71875 318.167969 287.703125 318.175781 287.691406 318.179688 C 285.574219 319.15625 283.648438 321.507812 282.371094 323.070312 C 282.101562 323.398438 281.867188 323.6875 281.675781 323.90625 C 281.121094 324.535156 280.445312 324.625 280.117188 324.601562 C 279.660156 324.589844 279.324219 324.417969 279.195312 324.25 C 278.605469 323.507812 279.03125 322.082031 280.449219 320.015625 C 281.929688 317.859375 285.820312 315.402344 286.085938 315.234375 C 286.09375 315.226562 286.109375 315.21875 286.113281 315.21875 C 286.375 315.054688 286.457031 314.707031 286.292969 314.445312 C 286.132812 314.179688 285.785156 314.097656 285.523438 314.261719 C 285.492188 314.28125 285.328125 314.382812 285.074219 314.546875 C 283.929688 315.296875 280.886719 317.398438 279.523438 319.382812 C 278.648438 320.652344 277.65625 322.363281 277.851562 323.808594 C 277.800781 323.832031 277.746094 323.859375 277.703125 323.902344 C 277.378906 324.222656 276.828125 324.394531 276.253906 324.355469 C 275.796875 324.324219 275.402344 324.152344 275.203125 323.898438 C 274.773438 323.351562 274.785156 321.578125 276.644531 319.167969 C 278.492188 316.773438 281.785156 313.960938 281.816406 313.933594 C 281.878906 313.878906 281.925781 313.816406 281.960938 313.746094 C 282.050781 313.550781 282.027344 313.316406 281.882812 313.140625 C 281.683594 312.90625 281.328125 312.875 281.089844 313.078125 C 281.058594 313.105469 280.859375 313.273438 280.558594 313.542969 C 279.527344 314.453125 277.238281 316.554688 275.753906 318.480469 C 274.199219 320.496094 273.71875 322.261719 273.890625 323.480469 C 273.488281 323.878906 272.949219 324.105469 272.46875 324.019531 C 272.046875 323.949219 271.734375 323.65625 271.566406 323.171875 C 271.234375 322.234375 271.320312 320.402344 272.644531 318.328125 C 274.167969 315.953125 276.761719 313.820312 277.601562 313.160156 C 277.769531 313.03125 277.875 312.953125 277.882812 312.949219 C 278.132812 312.765625 278.183594 312.414062 278 312.164062 C 277.816406 311.914062 277.464844 311.859375 277.214844 312.042969 C 277.070312 312.148438 273.640625 314.695312 271.699219 317.722656 C 271.355469 318.261719 271.097656 318.78125 270.886719 319.289062 C 270.332031 319.589844 269.796875 319.898438 269.292969 320.199219 C 268.265625 320.808594 267.378906 321.332031 266.601562 321.578125 C 266.175781 321.707031 265.515625 321.609375 265.183594 321.21875 C 264.824219 320.792969 264.898438 320.03125 265.386719 319.082031 C 267.683594 314.625 274.089844 309.851562 279.972656 309.847656 C 279.976562 309.847656 279.980469 309.847656 279.988281 309.847656 C 284.847656 309.847656 289.699219 311.300781 293.296875 313.828125 C 293.402344 313.90625 293.53125 313.9375 293.671875 313.929688 L 327.691406 310.871094 C 327.851562 310.859375 327.996094 310.777344 328.089844 310.652344 C 328.1875 310.523438 328.222656 310.363281 328.195312 310.203125 L 326.296875 300.425781 L 326.277344 300.316406 C 326.273438 300.3125 326.269531 300.308594 326.269531 300.304688 C 326.269531 300.300781 326.269531 300.296875 326.269531 300.292969 L 326.167969 299.863281 L 320.648438 276.980469 C 320.574219 276.679688 320.273438 276.5 319.96875 276.566406 C 319.667969 276.640625 319.480469 276.941406 319.554688 277.246094 L 325.171875 300.535156 L 325.171875 300.539062 L 326.972656 309.808594 L 326.453125 309.855469 L 293.773438 312.789062 C 290.007812 310.203125 285 308.726562 279.988281 308.726562 C 279.980469 308.726562 279.976562 308.726562 279.972656 308.726562 C 277.316406 308.726562 274.640625 309.589844 272.230469 310.921875 C 272.207031 310.933594 272.1875 310.945312 272.167969 310.957031 L 272.625 300.4375 L 273.636719 277.136719 C 273.648438 276.828125 273.410156 276.566406 273.101562 276.550781 C 272.792969 276.550781 272.527344 276.777344 272.515625 277.089844 L 271.523438 299.863281 L 271.476562 300.984375 L 271.011719 311.648438 C 268.074219 313.542969 265.660156 316.101562 264.390625 318.5625 C 263.476562 320.335938 263.851562 321.378906 264.324219 321.941406 C 264.472656 322.121094 264.652344 322.253906 264.84375 322.375 C 260.914062 323.902344 255.410156 325.265625 249.59375 325.710938 C 250.332031 324.578125 250.949219 322.332031 251.292969 320.886719 C 251.375 321.023438 251.457031 321.164062 251.542969 321.308594 C 252.085938 322.234375 252.648438 323.1875 253.292969 323.726562 C 254.03125 324.339844 255.210938 324.589844 256.164062 324.332031 C 256.949219 324.117188 257.53125 323.589844 257.808594 322.839844 C 258.359375 321.339844 256.445312 317.253906 254.148438 314.382812 C 254.214844 314.3125 254.28125 314.25 254.335938 314.167969 C 254.683594 313.667969 254.761719 313.023438 254.546875 312.453125 L 251.957031 305.640625 L 253.371094 300.984375 L 252.953125 300.984375 C 252.78125 300.984375 252.617188 300.90625 252.511719 300.769531 C 252.40625 300.632812 252.367188 300.453125 252.410156 300.285156 C 252.410156 300.28125 252.414062 300.269531 252.414062 300.265625 L 251.304688 303.925781 L 233.246094 256.402344 C 232.867188 255.40625 231.894531 254.734375 230.832031 254.734375 L 140.554688 254.734375 C 139.617188 254.734375 138.742188 255.195312 138.210938 255.96875 C 137.675781 256.742188 137.558594 257.726562 137.890625 258.601562 L 158.300781 312.3125 L 158.613281 313.136719 C 158.785156 313.585938 159.070312 313.972656 159.425781 314.277344 C 159.933594 314.710938 160.585938 314.972656 161.277344 314.972656 L 181.230469 314.972656 L 176.398438 328.964844 C 176.285156 329.289062 176.289062 329.636719 176.375 329.964844 C 176.429688 330.15625 176.503906 330.347656 176.621094 330.511719 C 176.808594 330.777344 177.066406 330.964844 177.355469 331.085938 C 177.5625 331.175781 177.78125 331.230469 178.011719 331.230469 L 225.28125 331.230469 C 225.472656 331.230469 225.652344 331.199219 225.828125 331.148438 L 289.324219 331.148438 C 289.414062 331.148438 289.496094 331.125 289.570312 331.085938 C 289.757812 330.996094 289.886719 330.808594 289.886719 330.589844 L 289.886719 327.40625 C 289.886719 327.09375 289.636719 326.84375 289.324219 326.84375 L 271.476562 326.84375 L 271.5625 324.851562 C 271.566406 324.855469 271.574219 324.859375 271.578125 324.863281 C 271.796875 324.988281 272.027344 325.085938 272.28125 325.128906 C 272.414062 325.152344 272.542969 325.160156 272.675781 325.160156 C 273.25 325.160156 273.824219 324.949219 274.316406 324.589844 C 274.320312 324.589844 274.320312 324.59375 274.320312 324.59375 C 274.71875 325.101562 275.394531 325.425781 276.175781 325.476562 C 276.253906 325.480469 276.332031 325.484375 276.410156 325.484375 C 277.113281 325.484375 277.773438 325.257812 278.269531 324.875 C 278.289062 324.898438 278.292969 324.925781 278.3125 324.949219 C 278.679688 325.417969 279.34375 325.707031 280.085938 325.726562 C 280.113281 325.730469 280.140625 325.730469 280.167969 325.730469 C 281.058594 325.730469 281.910156 325.335938 282.515625 324.648438 C 282.71875 324.421875 282.960938 324.125 283.238281 323.78125 C 283.691406 323.230469 284.230469 322.570312 284.824219 321.917969 C 288.945312 326.667969 301.742188 327.5 312.0625 327.5 C 315.332031 327.5 318.355469 327.417969 320.765625 327.351562 L 322.441406 327.308594 C 324.703125 327.253906 326.816406 327.160156 328.804688 327.019531 C 329.179688 326.992188 329.558594 326.96875 329.925781 326.9375 C 340.597656 326.058594 347.058594 323.539062 348.589844 316.503906 C 350.0625 309.75 348.65625 300.71875 348.597656 300.339844 C 348.597656 300.335938 348.597656 300.335938 348.597656 300.335938 Z M 201.910156 326.84375 C 201.859375 326.84375 201.8125 326.859375 201.765625 326.875 C 201.742188 326.855469 201.71875 326.84375 201.703125 326.820312 C 201.617188 326.699219 201.59375 326.550781 201.644531 326.414062 L 205.59375 314.972656 L 231.976562 314.972656 C 231.929688 315.054688 231.871094 315.121094 231.824219 315.199219 C 230.195312 317.957031 230.183594 320.839844 230.710938 322.621094 C 230.960938 323.457031 231.523438 324.007812 232.296875 324.171875 C 233.242188 324.367188 234.210938 323.941406 234.640625 323.433594 C 235.257812 322.703125 235.496094 321.859375 235.753906 320.960938 C 235.878906 320.511719 236.011719 320.042969 236.199219 319.585938 C 236.433594 319.003906 236.6875 318.542969 236.929688 318.164062 C 236.917969 318.285156 236.902344 318.398438 236.894531 318.523438 C 236.644531 321.792969 236.902344 323.894531 237.703125 325.132812 C 238.1875 325.882812 238.878906 326.300781 239.625 326.300781 C 239.710938 326.300781 239.796875 326.296875 239.882812 326.285156 C 240.46875 326.210938 240.992188 325.875 241.410156 325.386719 C 241.480469 325.53125 241.554688 325.671875 241.636719 325.800781 C 241.976562 326.324219 242.417969 326.675781 242.90625 326.84375 Z M 244.890625 324.660156 C 244.644531 325.3125 244.179688 325.773438 243.675781 325.835938 C 243.148438 325.894531 242.792969 325.519531 242.578125 325.1875 C 241.929688 324.179688 241.722656 322.246094 241.949219 319.273438 C 242.085938 317.441406 242.621094 315.585938 242.808594 314.972656 L 246 314.972656 C 244.941406 317.929688 244.683594 322.800781 244.890625 324.660156 Z M 240.828125 319.1875 C 240.671875 321.214844 240.714844 322.792969 240.957031 323.992188 C 240.710938 324.644531 240.242188 325.105469 239.742188 325.167969 C 239.230469 325.226562 238.859375 324.851562 238.644531 324.523438 C 237.996094 323.511719 237.789062 321.578125 238.011719 318.605469 C 238.144531 316.851562 238.519531 315.480469 238.671875 314.972656 L 241.636719 314.972656 C 241.386719 315.824219 240.953125 317.492188 240.828125 319.1875 Z M 237.246094 316.054688 C 236.84375 316.386719 235.914062 317.300781 235.160156 319.160156 C 234.949219 319.675781 234.808594 320.171875 234.671875 320.652344 C 234.441406 321.464844 234.242188 322.164062 233.78125 322.707031 C 233.59375 322.929688 233.023438 323.179688 232.527344 323.074219 C 232.160156 322.996094 231.917969 322.742188 231.789062 322.304688 C 231.328125 320.75 231.347656 318.214844 232.792969 315.773438 C 232.957031 315.492188 233.148438 315.234375 233.335938 314.976562 L 237.503906 314.976562 C 237.429688 315.25 237.335938 315.613281 237.246094 316.054688 Z M 256.753906 322.453125 C 256.601562 322.863281 256.304688 323.128906 255.871094 323.246094 C 255.269531 323.410156 254.46875 323.242188 254.011719 322.863281 C 253.511719 322.449219 252.980469 321.542969 252.511719 320.742188 C 252.207031 320.226562 251.917969 319.742188 251.632812 319.359375 C 251.988281 317.925781 252.339844 316.085938 252.355469 316.003906 C 252.414062 315.699219 252.214844 315.40625 251.910156 315.347656 C 251.601562 315.292969 251.308594 315.488281 251.253906 315.792969 C 251.246094 315.816406 250.847656 317.921875 250.480469 319.347656 C 250.476562 319.351562 250.480469 319.359375 250.476562 319.367188 C 250.476562 319.371094 250.472656 319.375 250.472656 319.378906 C 250.089844 321.3125 249.207031 324.640625 248.464844 325.339844 C 248.011719 325.769531 247.351562 325.933594 246.828125 325.75 C 246.515625 325.640625 246.121094 325.363281 246.023438 324.667969 C 245.78125 322.957031 246.078125 317.882812 247.132812 315.144531 C 247.152344 315.089844 247.160156 315.03125 247.160156 314.972656 L 252.808594 314.972656 C 252.929688 314.972656 253.046875 314.953125 253.164062 314.929688 C 255.40625 317.671875 257.082031 321.5625 256.753906 322.453125 Z M 230.832031 255.859375 C 231.433594 255.859375 231.980469 256.238281 232.195312 256.800781 L 253.496094 312.851562 C 253.582031 313.082031 253.550781 313.332031 253.410156 313.53125 C 253.273438 313.734375 253.050781 313.851562 252.804688 313.851562 L 251.707031 313.851562 L 229.667969 255.859375 Z M 161.277344 313.851562 C 160.566406 313.851562 159.917969 313.402344 159.664062 312.738281 L 138.941406 258.203125 C 138.738281 257.664062 138.808594 257.082031 139.132812 256.609375 C 139.460938 256.132812 139.980469 255.859375 140.554688 255.859375 L 228.46875 255.859375 L 250.503906 313.851562 L 205.984375 313.851562 L 211.34375 298.339844 C 211.402344 298.167969 211.375 297.976562 211.269531 297.832031 C 211.164062 297.683594 210.992188 297.59375 210.8125 297.59375 L 187.636719 297.59375 C 187.394531 297.59375 187.183594 297.746094 187.105469 297.972656 L 181.621094 313.851562 Z M 225.28125 330.109375 L 178.011719 330.109375 C 177.820312 330.109375 177.648438 330.019531 177.535156 329.863281 C 177.425781 329.707031 177.398438 329.515625 177.460938 329.332031 L 188.035156 298.71875 L 210.023438 298.71875 L 200.582031 326.046875 C 200.417969 326.527344 200.496094 327.058594 200.789062 327.472656 C 201.082031 327.882812 201.558594 328.128906 202.0625 328.128906 L 225.28125 328.128906 C 225.824219 328.128906 226.269531 328.574219 226.269531 329.117188 C 226.269531 329.664062 225.824219 330.109375 225.28125 330.109375 Z M 288.765625 327.96875 L 288.765625 330.027344 L 227.179688 330.027344 C 227.3125 329.75 227.390625 329.445312 227.390625 329.117188 C 227.390625 328.695312 227.261719 328.300781 227.046875 327.96875 Z M 249.292969 326.84375 C 256.921875 326.289062 264.847656 324.160156 268.964844 321.691406 C 269.261719 321.523438 269.558594 321.347656 269.867188 321.167969 C 270.039062 321.066406 270.230469 320.957031 270.40625 320.855469 C 270.199219 321.929688 270.269531 322.851562 270.492188 323.511719 L 270.347656 326.84375 Z M 317.425781 246.140625 C 317.597656 246.398438 317.527344 246.746094 317.269531 246.917969 L 317.039062 247.070312 L 300.808594 257.851562 C 300.714844 257.914062 300.609375 257.945312 300.496094 257.945312 C 300.445312 257.945312 300.390625 257.9375 300.339844 257.925781 C 300.183594 257.875 300.050781 257.765625 299.984375 257.613281 L 295.992188 248.613281 L 289.0625 256.457031 C 288.933594 256.601562 288.734375 256.675781 288.539062 256.636719 C 288.347656 256.601562 288.1875 256.464844 288.117188 256.28125 L 285.652344 249.703125 L 285.492188 249.273438 C 285.382812 248.980469 285.527344 248.65625 285.820312 248.546875 C 286.109375 248.4375 286.433594 248.585938 286.542969 248.875 L 286.640625 249.144531 L 288.839844 255.011719 L 295.398438 247.585938 L 295.730469 247.214844 C 295.855469 247.074219 296.050781 247.003906 296.234375 247.03125 C 296.421875 247.0625 296.585938 247.183594 296.664062 247.359375 L 296.867188 247.820312 L 300.742188 256.546875 L 316.125 246.328125 L 316.648438 245.980469 C 316.902344 245.8125 317.253906 245.878906 317.425781 246.140625 Z M 203.691406 278.132812 L 179.464844 278.132812 C 179.152344 278.132812 178.902344 277.882812 178.902344 277.570312 C 178.902344 277.261719 179.152344 277.007812 179.464844 277.007812 L 203.691406 277.007812 C 204.003906 277.007812 204.253906 277.261719 204.253906 277.570312 C 204.253906 277.882812 204 278.132812 203.691406 278.132812 Z M 205.226562 282.167969 L 180.996094 282.167969 C 180.6875 282.167969 180.433594 281.917969 180.433594 281.605469 C 180.433594 281.296875 180.6875 281.042969 180.996094 281.042969 L 205.226562 281.042969 C 205.535156 281.042969 205.785156 281.296875 205.785156 281.605469 C 205.785156 281.917969 205.535156 282.167969 205.226562 282.167969 Z M 206.757812 286.203125 L 182.53125 286.203125 C 182.21875 286.203125 181.96875 285.953125 181.96875 285.640625 C 181.96875 285.332031 182.21875 285.078125 182.53125 285.078125 L 206.757812 285.078125 C 207.066406 285.078125 207.320312 285.332031 207.320312 285.640625 C 207.320312 285.953125 207.066406 286.203125 206.757812 286.203125 Z M 208.292969 290.238281 L 184.0625 290.238281 C 183.753906 290.238281 183.5 289.988281 183.5 289.679688 C 183.5 289.367188 183.753906 289.117188 184.0625 289.117188 L 208.292969 289.117188 C 208.601562 289.117188 208.851562 289.367188 208.851562 289.679688 C 208.851562 289.988281 208.601562 290.238281 208.292969 290.238281 Z M 285.492188 215.800781 C 285.378906 215.9375 285.21875 216.003906 285.058594 216.003906 C 284.933594 216.003906 284.804688 215.964844 284.703125 215.875 C 284.460938 215.679688 284.429688 215.324219 284.625 215.085938 C 286.382812 212.960938 288.890625 213.753906 288.996094 213.785156 C 289.292969 213.882812 289.453125 214.199219 289.355469 214.496094 C 289.261719 214.789062 288.941406 214.953125 288.648438 214.855469 C 288.570312 214.832031 286.75 214.277344 285.492188 215.800781 Z M 298.628906 214.644531 C 296.421875 213.148438 294.449219 214.566406 294.367188 214.628906 C 294.117188 214.8125 293.769531 214.761719 293.582031 214.511719 C 293.398438 214.265625 293.445312 213.914062 293.691406 213.730469 C 294.609375 213.042969 296.953125 212.148438 299.257812 213.714844 C 299.511719 213.886719 299.582031 214.238281 299.40625 214.492188 C 299.296875 214.65625 299.121094 214.742188 298.941406 214.742188 C 298.832031 214.742188 298.722656 214.707031 298.628906 214.644531 Z M 272.023438 129.285156 L 319.179688 129.285156 C 319.492188 129.285156 319.742188 129.035156 319.742188 128.722656 L 319.742188 108.296875 C 319.742188 100.085938 313.070312 93.410156 304.863281 93.410156 L 302.007812 93.410156 L 302.007812 93.285156 C 307.460938 90.910156 310.960938 85.585938 310.960938 79.617188 C 310.960938 71.390625 304.273438 64.699219 296.054688 64.699219 C 287.835938 64.699219 281.152344 71.390625 281.152344 79.617188 C 281.152344 85.226562 284.222656 90.261719 289.195312 92.84375 L 289.195312 93.410156 L 286.339844 93.410156 C 278.136719 93.410156 271.464844 100.085938 271.464844 108.296875 L 271.464844 128.722656 C 271.464844 129.035156 271.714844 129.285156 272.023438 129.285156 Z M 272.585938 108.296875 C 272.585938 100.707031 278.757812 94.53125 286.339844 94.53125 L 289.757812 94.53125 C 290.066406 94.53125 290.316406 94.28125 290.316406 93.972656 L 290.316406 92.5 C 290.316406 92.285156 290.195312 92.089844 290.003906 91.992188 C 285.234375 89.652344 282.273438 84.910156 282.273438 79.617188 C 282.273438 72.011719 288.457031 65.824219 296.054688 65.824219 C 303.65625 65.824219 309.839844 72.011719 309.839844 79.617188 C 309.839844 85.253906 306.460938 90.269531 301.238281 92.394531 C 301.023438 92.480469 300.886719 92.683594 300.886719 92.914062 L 300.886719 93.972656 C 300.886719 94.28125 301.136719 94.535156 301.449219 94.535156 L 304.863281 94.535156 C 312.449219 94.535156 318.617188 100.707031 318.617188 108.296875 L 318.617188 128.164062 L 272.585938 128.164062 Z M 150.914062 181.738281 L 198.070312 181.738281 C 198.378906 181.738281 198.628906 181.488281 198.628906 181.175781 L 198.628906 160.75 C 198.628906 152.539062 191.957031 145.863281 183.753906 145.863281 L 180.898438 145.863281 L 180.898438 145.738281 C 186.347656 143.363281 189.851562 138.039062 189.851562 132.070312 C 189.851562 123.84375 183.164062 117.152344 174.945312 117.152344 C 166.726562 117.152344 160.039062 123.84375 160.039062 132.070312 C 160.039062 137.675781 163.113281 142.714844 168.082031 145.296875 L 168.082031 145.863281 L 165.226562 145.863281 C 157.023438 145.863281 150.351562 152.539062 150.351562 160.75 L 150.351562 181.175781 C 150.351562 181.488281 150.601562 181.738281 150.914062 181.738281 Z M 151.472656 160.75 C 151.472656 153.160156 157.644531 146.984375 165.226562 146.984375 L 168.644531 146.984375 C 168.957031 146.984375 169.207031 146.734375 169.207031 146.425781 L 169.207031 144.949219 C 169.207031 144.734375 169.085938 144.539062 168.894531 144.445312 C 164.125 142.105469 161.164062 137.363281 161.164062 132.070312 C 161.164062 124.464844 167.34375 118.277344 174.945312 118.277344 C 182.542969 118.277344 188.726562 124.464844 188.726562 132.070312 C 188.726562 137.707031 185.351562 142.722656 180.125 144.847656 C 179.914062 144.933594 179.777344 145.136719 179.777344 145.367188 L 179.777344 146.425781 C 179.777344 146.734375 180.027344 146.988281 180.335938 146.988281 L 183.753906 146.988281 C 191.339844 146.988281 197.507812 153.160156 197.507812 160.75 L 197.507812 180.617188 L 151.476562 180.617188 L 151.476562 160.75 Z M 62.261719 199.261719 L 59.40625 199.261719 L 59.40625 199.140625 C 64.859375 196.761719 68.359375 191.4375 68.359375 185.46875 C 68.359375 177.246094 61.671875 170.554688 53.453125 170.554688 C 45.234375 170.554688 38.550781 177.246094 38.550781 185.46875 C 38.550781 191.078125 41.621094 196.113281 46.59375 198.695312 L 46.59375 199.261719 L 43.738281 199.261719 C 35.535156 199.261719 28.859375 205.941406 28.859375 214.148438 L 28.859375 234.578125 C 28.859375 234.886719 29.113281 235.140625 29.421875 235.140625 L 76.578125 235.140625 C 76.886719 235.140625 77.140625 234.886719 77.140625 234.578125 L 77.140625 214.148438 C 77.140625 205.941406 70.464844 199.261719 62.261719 199.261719 Z M 76.015625 234.015625 L 29.984375 234.015625 L 29.984375 214.148438 C 29.984375 206.558594 36.152344 200.386719 43.738281 200.386719 L 47.15625 200.386719 C 47.464844 200.386719 47.71875 200.132812 47.71875 199.824219 L 47.71875 198.351562 C 47.71875 198.136719 47.59375 197.941406 47.402344 197.847656 C 42.632812 195.503906 39.671875 190.761719 39.671875 185.46875 C 39.671875 177.863281 45.855469 171.675781 53.453125 171.675781 C 61.054688 171.675781 67.238281 177.863281 67.238281 185.46875 C 67.238281 191.105469 63.863281 196.121094 58.636719 198.246094 C 58.425781 198.332031 58.285156 198.539062 58.285156 198.765625 L 58.285156 199.824219 C 58.285156 200.132812 58.535156 200.386719 58.847656 200.386719 L 62.265625 200.386719 C 69.847656 200.386719 76.015625 206.558594 76.015625 214.148438 Z M 212.050781 196.8125 C 211.980469 196.605469 212.035156 196.382812 212.1875 196.230469 C 212.339844 196.074219 212.5625 196.023438 212.769531 196.09375 L 236.054688 204.164062 C 236.28125 204.242188 236.433594 204.457031 236.433594 204.695312 C 236.429688 204.9375 236.277344 205.152344 236.050781 205.226562 L 224.875 208.976562 C 224.582031 209.082031 224.261719 208.917969 224.164062 208.625 C 224.121094 208.488281 224.132812 208.351562 224.183594 208.230469 C 224.207031 208.179688 224.238281 208.132812 224.273438 208.089844 C 224.289062 208.070312 224.296875 208.050781 224.3125 208.039062 C 224.371094 207.984375 224.4375 207.9375 224.519531 207.910156 L 234.128906 204.6875 L 213.492188 197.535156 L 221.175781 219.746094 C 221.222656 219.878906 221.210938 220.011719 221.160156 220.132812 C 221.125 220.226562 221.066406 220.308594 220.984375 220.371094 C 220.96875 220.382812 220.949219 220.390625 220.933594 220.402344 C 220.898438 220.421875 220.867188 220.449219 220.828125 220.460938 C 220.769531 220.480469 220.707031 220.492188 220.644531 220.492188 C 220.527344 220.492188 220.414062 220.457031 220.320312 220.386719 C 220.230469 220.324219 220.15625 220.230469 220.113281 220.113281 Z M 247.039062 237.984375 C 251.230469 252.578125 245.804688 266.996094 245.75 267.140625 C 245.664062 267.363281 245.449219 267.5 245.226562 267.5 C 245.15625 267.5 245.089844 267.488281 245.023438 267.464844 C 244.734375 267.351562 244.589844 267.027344 244.699219 266.738281 C 244.753906 266.597656 250.046875 252.515625 245.960938 238.292969 C 241.875 224.082031 232.597656 217.007812 232.503906 216.9375 C 232.253906 216.753906 232.203125 216.402344 232.390625 216.152344 C 232.574219 215.902344 232.925781 215.851562 233.175781 216.039062 C 233.273438 216.109375 242.847656 223.390625 247.039062 237.984375 Z M 356.367188 209.332031 C 357.394531 206.789062 357.929688 203.710938 357.722656 200.050781 C 356.804688 183.925781 343.671875 173.71875 339.960938 171.144531 L 343.34375 170.011719 L 350.046875 167.761719 C 350.273438 167.6875 350.425781 167.472656 350.429688 167.230469 C 350.429688 166.992188 350.277344 166.777344 350.050781 166.699219 L 326.765625 158.628906 C 326.558594 158.558594 326.335938 158.613281 326.183594 158.765625 C 326.03125 158.914062 325.976562 159.140625 326.046875 159.34375 L 329.351562 168.886719 L 329.738281 170.011719 L 334.109375 182.648438 C 334.1875 182.875 334.402344 183.027344 334.640625 183.027344 C 334.878906 183.027344 335.09375 182.875 335.171875 182.652344 L 338.984375 171.839844 C 341.980469 173.851562 355.679688 183.921875 356.601562 200.117188 C 356.804688 203.683594 356.300781 206.542969 355.40625 208.824219 C 354.625 208.429688 353.835938 208.074219 353.046875 207.757812 C 345.894531 204.902344 340.511719 207.089844 338.074219 209.828125 C 336.1875 211.945312 335.738281 214.601562 336.902344 216.757812 C 338.085938 218.953125 342.089844 219.730469 346.207031 218.566406 C 349.933594 217.507812 353.734375 214.875 355.914062 210.359375 C 364.652344 215.175781 372.027344 224.65625 370.386719 233.230469 C 369.847656 236.058594 368.308594 238.273438 365.820312 239.816406 C 355.886719 245.972656 333.933594 239.933594 333.714844 239.871094 C 333.414062 239.789062 333.105469 239.964844 333.019531 240.261719 C 332.9375 240.558594 333.113281 240.871094 333.410156 240.953125 C 334.011719 241.121094 343.492188 243.730469 352.878906 243.730469 C 357.863281 243.730469 362.820312 242.996094 366.40625 240.773438 C 369.175781 239.054688 370.886719 236.589844 371.488281 233.441406 C 373.230469 224.347656 365.507812 214.34375 356.367188 209.332031 Z M 345.898438 217.484375 C 342.332031 218.488281 338.816406 217.9375 337.890625 216.222656 C 336.957031 214.496094 337.351562 212.332031 338.914062 210.574219 C 340.367188 208.941406 343.003906 207.539062 346.539062 207.539062 C 348.34375 207.539062 350.390625 207.90625 352.628906 208.800781 C 353.410156 209.113281 354.191406 209.464844 354.960938 209.855469 C 352.429688 215.148438 347.746094 216.960938 345.898438 217.484375 Z M 345.898438 217.484375 " fill-opacity="1" fill-rule="nonzero"/></g></svg>